<svg xmlns="http://www.w3.org/2000/svg" xmlns:xlink="http://www.w3.org/1999/xlink" version="1.1" id="fi_1481625" x="0px" y="0px" viewBox="0 0 256 256" style="enable-background:new 0 0 256 256;" xml:space="preserve" width="512" height="512">
<style type="text/css">
	.st0{fill:#87796F;}
	.st1{fill:#3A312A;}
	.st2{fill:#D7E057;}
	.st3{fill:#F16C7A;}
	.st4{fill:#8AC6DD;}
	.st5{fill:#FCE8CB;}
	.st6{fill:#695B51;}
	.st7{fill:#D34E5C;}
	.st8{fill:#6CA8BF;}
	.st9{fill:#B9C239;}
	.st10{fill:#DECAAD;}
	.st11{fill:#B9BC39;}
	.st12{fill-rule:evenodd;clip-rule:evenodd;fill:#87796F;}
	.st13{fill-rule:evenodd;clip-rule:evenodd;fill:#FCE8CB;}
	.st14{fill-rule:evenodd;clip-rule:evenodd;fill:#F16C7A;}
	.st15{fill:#F5978A;}
</style>
<g>
	<g>
		<g>
			<path class="st5" d="M165.991,40.021H35.106c-9.898,0-17.921,8.023-17.921,17.921v163.576c0,9.898,8.024,17.921,17.921,17.921     h130.885c9.898,0,17.921-8.024,17.921-17.921V57.942C183.912,48.044,175.888,40.021,165.991,40.021z"></path>
		</g>
	</g>
	<g>
		<g>
			<path class="st1" d="M165.99,38.521H35.105c-10.709,0-19.421,8.713-19.421,19.422v83.652c0,0.828,0.672,1.5,1.5,1.5     s1.5-0.672,1.5-1.5V57.942c0-9.055,7.366-16.422,16.421-16.422H165.99c9.055,0,16.422,7.367,16.422,16.422v163.576     c0,9.055-7.367,16.422-16.422,16.422H35.105c-9.055,0-16.421-7.367-16.421-16.422v-64.613c0-0.828-0.672-1.5-1.5-1.5     s-1.5,0.672-1.5,1.5v64.613c0,10.709,8.712,19.422,19.421,19.422H165.99c10.709,0,19.422-8.713,19.422-19.422V57.942     C185.412,47.233,176.699,38.521,165.99,38.521z"></path>
		</g>
	</g>
	<g>
		<g>
			<path class="st0" d="M165.99,40.021H35.106c-9.898,0-17.922,8.024-17.922,17.921V68h166.728V57.942     C183.912,48.045,175.888,40.021,165.99,40.021z"></path>
		</g>
	</g>
	<g>
		<g>
			<path class="st1" d="M165.99,38.521H35.105c-10.709,0-19.421,8.713-19.421,19.422V68c0,0.828,0.672,1.5,1.5,1.5h166.728     c0.828,0,1.5-0.672,1.5-1.5V57.942C185.412,47.233,176.699,38.521,165.99,38.521z M182.412,66.5H18.685v-8.558     c0-9.055,7.366-16.422,16.421-16.422H165.99c9.055,0,16.422,7.367,16.422,16.422V66.5z"></path>
		</g>
	</g>
	<g>
		<g>
			<path class="st2" d="M71.275,85.177H49.416c-4.175,0-7.56,3.385-7.56,7.56v21.859c0,4.175,3.385,7.56,7.56,7.56h21.859     c4.176,0,7.56-3.385,7.56-7.56V92.737C78.835,88.562,75.451,85.177,71.275,85.177z"></path>
		</g>
	</g>
	<g>
		<g>
			<path class="st1" d="M71.275,83.677H49.416c-4.995,0-9.06,4.064-9.06,9.061v21.858c0,4.996,4.064,9.061,9.06,9.061h21.859     c4.995,0,9.06-4.064,9.06-9.061V92.737C80.335,87.741,76.271,83.677,71.275,83.677z M77.335,114.596     c0,3.342-2.719,6.061-6.06,6.061H49.416c-3.341,0-6.06-2.719-6.06-6.061V92.737c0-3.342,2.719-6.061,6.06-6.061h21.859     c3.341,0,6.06,2.719,6.06,6.061V114.596z"></path>
		</g>
	</g>
	<g>
		<g>
			<path class="st1" d="M163.535,102.167H93.502c-0.828,0-1.5,0.672-1.5,1.5s0.672,1.5,1.5,1.5h70.033c0.828,0,1.5-0.672,1.5-1.5     S164.363,102.167,163.535,102.167z"></path>
		</g>
	</g>
	<g>
		<g>
			<path class="st2" d="M71.275,136.177H49.416c-4.175,0-7.56,3.385-7.56,7.56v21.859c0,4.175,3.385,7.56,7.56,7.56h21.859     c4.176,0,7.56-3.385,7.56-7.56v-21.859C78.835,139.562,75.451,136.177,71.275,136.177z"></path>
		</g>
	</g>
	<g>
		<g>
			<path class="st1" d="M71.275,134.677H49.416c-4.995,0-9.06,4.064-9.06,9.061v21.858c0,4.996,4.064,9.061,9.06,9.061h21.859     c4.995,0,9.06-4.064,9.06-9.061v-21.858C80.335,138.741,76.271,134.677,71.275,134.677z M77.335,165.596     c0,3.342-2.719,6.061-6.06,6.061H49.416c-3.341,0-6.06-2.719-6.06-6.061v-21.858c0-3.342,2.719-6.061,6.06-6.061h21.859     c3.341,0,6.06,2.719,6.06,6.061V165.596z"></path>
		</g>
	</g>
	<g>
		<g>
			<path class="st1" d="M163.535,153.167H93.502c-0.828,0-1.5,0.672-1.5,1.5s0.672,1.5,1.5,1.5h70.033c0.828,0,1.5-0.672,1.5-1.5     S164.363,153.167,163.535,153.167z"></path>
		</g>
	</g>
	<g>
		<g>
			<path class="st2" d="M71.275,187.177H49.416c-4.175,0-7.56,3.385-7.56,7.56v21.859c0,4.175,3.385,7.56,7.56,7.56h21.859     c4.176,0,7.56-3.385,7.56-7.56v-21.859C78.835,190.562,75.451,187.177,71.275,187.177z"></path>
		</g>
	</g>
	<g>
		<g>
			<path class="st1" d="M71.275,185.677H49.416c-4.995,0-9.06,4.064-9.06,9.061v21.858c0,4.996,4.064,9.061,9.06,9.061h21.859     c4.995,0,9.06-4.064,9.06-9.061v-21.858C80.335,189.741,76.271,185.677,71.275,185.677z M77.335,216.596     c0,3.342-2.719,6.061-6.06,6.061H49.416c-3.341,0-6.06-2.719-6.06-6.061v-21.858c0-3.342,2.719-6.061,6.06-6.061h21.859     c3.341,0,6.06,2.719,6.06,6.061V216.596z"></path>
		</g>
	</g>
	<g>
		<g>
			<path class="st1" d="M163.535,204.167H93.502c-0.828,0-1.5,0.672-1.5,1.5s0.672,1.5,1.5,1.5h70.033c0.828,0,1.5-0.672,1.5-1.5     S164.363,204.167,163.535,204.167z"></path>
		</g>
	</g>
	<g>
		<g>
			<path class="st4" d="M125.505,29.144c-2.301,0-4.454,0.619-6.317,1.687c-2.113-8.207-9.563-14.271-18.43-14.271     s-16.317,6.064-18.43,14.271c-1.863-1.067-4.016-1.687-6.317-1.687c-7.035,0-12.737,5.703-12.737,12.738     c0,7.035,5.703,12.737,12.737,12.737h49.493c7.035,0,12.738-5.703,12.738-12.737C138.243,34.847,132.54,29.144,125.505,29.144z"></path>
		</g>
	</g>
	<g>
		<g>
			<path class="st1" d="M125.505,27.645c-1.851,0-3.687,0.366-5.396,1.069c-2.878-8.124-10.592-13.654-19.351-13.654     s-16.473,5.53-19.351,13.654c-1.709-0.703-3.545-1.069-5.396-1.069c-7.851,0-14.237,6.387-14.237,14.237     s6.387,14.237,14.237,14.237h22.114c0.828,0,1.5-0.672,1.5-1.5s-0.672-1.5-1.5-1.5H76.013c-6.196,0-11.237-5.041-11.237-11.237     s5.041-11.237,11.237-11.237c1.946,0,3.873,0.515,5.57,1.487c0.406,0.234,0.896,0.264,1.329,0.081     c0.432-0.182,0.753-0.555,0.869-1.008c1.993-7.74,8.975-13.146,16.978-13.146s14.984,5.405,16.978,13.146     c0.116,0.453,0.438,0.826,0.869,1.008c0.434,0.183,0.923,0.153,1.329-0.081c1.697-0.973,3.624-1.487,5.57-1.487     c6.196,0,11.237,5.041,11.237,11.237s-5.041,11.237-11.237,11.237h-12.629c-0.828,0-1.5,0.672-1.5,1.5s0.672,1.5,1.5,1.5h12.629     c7.851,0,14.237-6.387,14.237-14.237S133.355,27.645,125.505,27.645z"></path>
		</g>
	</g>
	<g>
		<g>
			<path class="st1" d="M73.165,93.125c-0.621-0.552-1.568-0.494-2.117,0.125l-14.143,15.924l-7.455-7.455     c-0.586-0.586-1.535-0.586-2.121,0s-0.586,1.535,0,2.121l8.58,8.58c0.281,0.282,0.663,0.439,1.061,0.439     c0.015,0,0.029,0,0.044-0.001c0.413-0.012,0.803-0.194,1.077-0.503L73.29,95.242C73.841,94.623,73.784,93.675,73.165,93.125z"></path>
		</g>
	</g>
	<g>
		<g>
			<path class="st1" d="M73.165,143.958c-0.621-0.551-1.568-0.495-2.117,0.125l-14.143,15.924l-7.455-7.455     c-0.586-0.586-1.535-0.586-2.121,0s-0.586,1.535,0,2.121l8.58,8.58c0.281,0.282,0.663,0.439,1.061,0.439     c0.015,0,0.029,0,0.044-0.001c0.413-0.012,0.803-0.194,1.077-0.503l15.199-17.113C73.841,145.456,73.784,144.508,73.165,143.958z     "></path>
		</g>
	</g>
	<g>
		<g>
			<path class="st1" d="M73.165,195.458c-0.621-0.551-1.568-0.494-2.117,0.125l-14.143,15.924l-7.455-7.455     c-0.586-0.586-1.535-0.586-2.121,0s-0.586,1.535,0,2.121l8.58,8.58c0.281,0.282,0.663,0.439,1.061,0.439     c0.015,0,0.029,0,0.044-0.001c0.413-0.012,0.803-0.194,1.077-0.503l15.199-17.113C73.841,196.956,73.784,196.008,73.165,195.458z     "></path>
		</g>
	</g>
	<g>
		<g>
			<path class="st2" d="M221.558,26.237c-0.974,11.563-13.025,13.389-13.025,13.389c10.347,0.487,12.925,14.059,12.925,14.059     c0.221-9.677,13.321-14.202,13.321-14.202C224.967,38.896,221.558,26.237,221.558,26.237z"></path>
		</g>
	</g>
	<g>
		<g>
			<path class="st1" d="M234.87,37.986c-8.604-0.515-11.832-12.025-11.863-12.142c-0.19-0.702-0.852-1.161-1.584-1.102     c-0.725,0.066-1.298,0.642-1.359,1.367c-0.859,10.216-11.312,11.964-11.754,12.032c-0.763,0.116-1.313,0.791-1.273,1.561     c0.04,0.771,0.657,1.385,1.428,1.421c9.027,0.426,11.498,12.719,11.521,12.844c0.138,0.711,0.76,1.217,1.473,1.217     c0.042,0,0.084-0.002,0.126-0.005c0.765-0.064,1.357-0.693,1.375-1.46c0.193-8.509,12.191-12.777,12.312-12.819     c0.676-0.234,1.092-0.914,0.994-1.622C236.168,38.569,235.584,38.028,234.87,37.986z M221.304,48.331     c-1.356-3.13-3.709-6.906-7.587-8.876c2.931-1.404,6.409-3.913,8.202-8.272c1.551,3.07,4.199,6.88,8.334,8.722     C227.245,41.545,223.33,44.311,221.304,48.331z"></path>
		</g>
	</g>
	<g>
		<g>
			<path class="st2" d="M199.859,43.217c-0.689,8.179-9.213,9.471-9.213,9.471c7.318,0.344,9.142,9.944,9.142,9.944     c0.156-6.845,9.422-10.045,9.422-10.045C202.27,52.171,199.859,43.217,199.859,43.217z"></path>
		</g>
	</g>
	<g>
		<g>
			<path class="st1" d="M209.302,51.09c-5.767-0.346-7.973-8.187-7.995-8.266c-0.189-0.702-0.859-1.164-1.581-1.102     c-0.726,0.065-1.3,0.643-1.361,1.368c-0.578,6.871-7.646,8.066-7.941,8.113c-0.763,0.116-1.313,0.791-1.273,1.561     c0.04,0.771,0.657,1.385,1.428,1.421c6.035,0.284,7.723,8.645,7.738,8.727c0.136,0.712,0.759,1.22,1.473,1.22     c0.041,0,0.083-0.002,0.124-0.005c0.766-0.063,1.359-0.693,1.377-1.461c0.13-5.709,8.332-8.633,8.412-8.661     c0.677-0.233,1.094-0.913,0.997-1.622C210.601,51.674,210.016,51.133,209.302,51.09z M199.717,57.884     c-0.924-1.886-2.34-3.947-4.447-5.279c1.855-1.041,3.697-2.63,4.87-4.917c1.058,1.874,2.655,3.955,4.942,5.225     C203.231,54.012,201.093,55.652,199.717,57.884z"></path>
		</g>
	</g>
	<g>
		<g>
			<path class="st2" d="M199.859,16.56c-0.689,8.179-9.213,9.47-9.213,9.47c7.318,0.344,9.142,9.944,9.142,9.944     c0.156-6.845,9.422-10.045,9.422-10.045C202.27,25.514,199.859,16.56,199.859,16.56z"></path>
		</g>
	</g>
	<g>
		<g>
			<path class="st1" d="M209.302,24.432c-5.767-0.345-7.973-8.186-7.995-8.265c-0.189-0.702-0.859-1.163-1.581-1.102     c-0.726,0.065-1.3,0.643-1.361,1.368c-0.578,6.871-7.646,8.066-7.941,8.113c-0.763,0.116-1.313,0.791-1.273,1.561     c0.04,0.771,0.657,1.385,1.428,1.421c6.035,0.284,7.723,8.645,7.738,8.727c0.136,0.712,0.759,1.22,1.473,1.22     c0.041,0,0.083-0.002,0.124-0.005c0.766-0.063,1.359-0.693,1.377-1.461c0.13-5.709,8.332-8.634,8.413-8.662     c0.676-0.233,1.093-0.913,0.996-1.622C210.601,25.016,210.016,24.474,209.302,24.432z M199.717,31.227     c-0.924-1.886-2.34-3.947-4.447-5.279c1.855-1.041,3.697-2.63,4.87-4.917c1.058,1.874,2.655,3.954,4.941,5.224     C203.231,27.354,201.093,28.994,199.717,31.227z"></path>
		</g>
	</g>
	<g>
		<g>
			<path class="st3" d="M233.972,172.229h-2.231c-1.308-5.717-3.587-11.063-6.657-15.855l1.641-1.642     c1.891-1.891,1.891-4.958,0-6.85l-8.72-8.72c-1.892-1.891-4.958-1.891-6.85,0l-1.703,1.703     c-4.782-3.012-10.106-5.242-15.793-6.51v-2.44c0-2.675-2.169-4.844-4.843-4.844h-12.333c-2.675,0-4.843,2.168-4.843,4.844v2.44     c-5.687,1.269-11.011,3.498-15.793,6.51l-1.703-1.703c-1.891-1.891-4.958-1.891-6.85,0l-8.721,8.72     c-1.891,1.892-1.891,4.958,0,6.85l1.642,1.642c-3.07,4.792-5.35,10.138-6.657,15.855h-2.231c-2.675,0-4.843,2.168-4.843,4.843     v12.333c0,2.675,2.168,4.843,4.843,4.843h2.115c1.258,5.787,3.509,11.203,6.569,16.06l-1.437,1.437     c-1.891,1.891-1.891,4.958,0,6.85l8.721,8.72c1.892,1.892,4.958,1.892,6.85,0l1.375-1.375c4.866,3.118,10.304,5.418,16.121,6.716     v1.907c0,2.675,2.169,4.843,4.843,4.843h12.333c2.675,0,4.843-2.168,4.843-4.843v-1.907c5.817-1.297,11.255-3.598,16.121-6.716     l1.375,1.375c1.891,1.892,4.958,1.892,6.85,0l8.72-8.72c1.891-1.891,1.891-4.958,0-6.85l-1.437-1.437     c3.059-4.857,5.311-10.272,6.569-16.06h2.115c2.675,0,4.843-2.168,4.843-4.843v-12.333     C238.816,174.397,236.647,172.229,233.972,172.229z M182.649,208.419c-13.906,0-25.18-11.274-25.18-25.18     c0-13.907,11.274-25.18,25.18-25.18c13.907,0,25.18,11.273,25.18,25.18C207.829,197.146,196.556,208.419,182.649,208.419z"></path>
		</g>
	</g>
	<g>
		<g>
			<path class="st1" d="M182.649,156.559c-14.712,0-26.681,11.969-26.681,26.681c0,14.711,11.969,26.68,26.681,26.68     c14.711,0,26.68-11.969,26.68-26.68C209.329,168.527,197.36,156.559,182.649,156.559z M182.649,206.919     c-13.058,0-23.681-10.623-23.681-23.68c0-13.058,10.623-23.681,23.681-23.681c13.057,0,23.68,10.623,23.68,23.681     C206.329,196.296,195.706,206.919,182.649,206.919z M233.973,170.729h-1.05c-1.263-4.987-3.255-9.733-5.935-14.138l0.797-0.798     c1.198-1.198,1.858-2.791,1.858-4.485c0-1.695-0.66-3.288-1.858-4.485l-8.72-8.721c-1.198-1.198-2.791-1.858-4.485-1.858     c-1.695,0-3.288,0.66-4.485,1.858l-0.866,0.866c-4.391-2.627-9.113-4.574-14.069-5.801v-1.252c0-3.498-2.846-6.344-6.344-6.344     h-12.333c-3.497,0-6.343,2.846-6.343,6.344v1.252c-4.956,1.227-9.679,3.174-14.069,5.801l-0.867-0.866     c-1.197-1.198-2.79-1.858-4.485-1.858c-1.694,0-3.287,0.66-4.485,1.858l-8.72,8.721c-1.198,1.197-1.858,2.79-1.858,4.485     c0,1.694,0.66,3.287,1.858,4.485l0.798,0.798c-2.679,4.402-4.671,9.147-5.936,14.138h-1.05c-3.497,0-6.343,2.846-6.343,6.343     v12.333c0,3.498,2.846,6.344,6.343,6.344h0.922c1.221,5.052,3.19,9.864,5.865,14.336l-0.6,0.6c-2.474,2.474-2.474,6.497,0,8.971     l8.72,8.721c2.476,2.473,6.499,2.472,8.971,0l0.532-0.531c4.481,2.727,9.317,4.74,14.404,5.999v0.719     c0,3.497,2.846,6.343,6.343,6.343h12.333c3.498,0,6.344-2.846,6.344-6.343v-0.719c5.087-1.259,9.922-3.272,14.403-5.999     l0.532,0.531c2.472,2.473,6.497,2.474,8.971,0l8.72-8.721c2.474-2.474,2.474-6.497,0-8.971l-0.6-0.6     c2.675-4.472,4.644-9.283,5.866-14.336h0.921c3.497,0,6.343-2.846,6.343-6.344v-12.333     C240.315,173.575,237.47,170.729,233.973,170.729z M237.315,189.405c0,1.844-1.5,3.344-3.343,3.344h-2.115     c-0.706,0-1.315,0.492-1.466,1.182c-1.202,5.533-3.347,10.774-6.373,15.578c-0.373,0.593-0.286,1.365,0.209,1.86l1.437,1.437     c1.304,1.304,1.304,3.425,0,4.729l-8.72,8.721c-1.305,1.303-3.426,1.303-4.729,0l-1.375-1.375c-0.497-0.5-1.275-0.581-1.87-0.202     c-4.81,3.081-10.07,5.272-15.638,6.514c-0.687,0.152-1.174,0.761-1.174,1.464v1.907c0,1.843-1.5,3.343-3.344,3.343h-12.333     c-1.843,0-3.343-1.5-3.343-3.343v-1.907c0-0.703-0.487-1.312-1.174-1.464c-5.567-1.241-10.829-3.433-15.639-6.514     c-0.249-0.159-0.53-0.237-0.809-0.237c-0.388,0-0.772,0.149-1.062,0.439l-1.375,1.375c-1.301,1.303-3.422,1.304-4.729,0     l-8.72-8.721c-1.304-1.304-1.304-3.425,0-4.729l1.437-1.437c0.495-0.495,0.582-1.268,0.209-1.86     c-3.026-4.805-5.171-10.046-6.372-15.578c-0.149-0.689-0.76-1.182-1.466-1.182h-2.116c-1.843,0-3.343-1.5-3.343-3.344v-12.333     c0-1.843,1.5-3.343,3.343-3.343h2.231c0.699,0,1.306-0.483,1.462-1.165c1.253-5.473,3.426-10.646,6.459-15.38     c0.381-0.594,0.296-1.372-0.202-1.87l-1.642-1.642c-0.632-0.632-0.979-1.472-0.979-2.364c0-0.894,0.348-1.732,0.979-2.364     l8.72-8.721c1.264-1.265,3.465-1.263,4.729,0l1.704,1.703c0.496,0.495,1.268,0.58,1.86,0.209     c4.727-2.979,9.881-5.104,15.319-6.316c0.687-0.152,1.174-0.762,1.174-1.464v-2.439c0-1.844,1.5-3.344,3.343-3.344h12.333     c1.844,0,3.344,1.5,3.344,3.344v2.439c0,0.702,0.487,1.312,1.174,1.464c5.438,1.214,10.593,3.339,15.319,6.316     c0.593,0.371,1.366,0.286,1.86-0.209l1.703-1.703c1.263-1.263,3.464-1.265,4.729,0l8.72,8.721     c0.632,0.632,0.979,1.471,0.979,2.364c0,0.893-0.348,1.732-0.979,2.364l-1.641,1.642c-0.498,0.499-0.583,1.276-0.202,1.87     c3.034,4.736,5.207,9.91,6.458,15.379c0.155,0.683,0.763,1.166,1.462,1.166h2.231c1.843,0,3.343,1.5,3.343,3.343V189.405z"></path>
		</g>
	</g>
	<g>
		<g>
			<path class="st10" d="M167.416,165.122v36.23c4.06,3.42,9.29,5.51,15,5.56v-47.35     C176.706,159.622,171.476,161.702,167.416,165.122z"></path>
		</g>
	</g>
	<g>
		<g>
			<path class="st10" d="M132.245,195.752h-0.92c-3.5,0-6.34-2.85-6.34-6.35v-12.33c0-3.5,2.84-6.34,6.34-6.34h1.05     c1.26-4.99,3.25-9.74,5.93-14.14l-0.42-0.43h-15l0.42,0.43c-2.68,4.4-4.67,9.15-5.93,14.14h-1.05c-3.5,0-6.34,2.84-6.34,6.34     v12.33c0,3.5,2.84,6.35,6.34,6.35h0.92c0.7,2.89,1.65,5.7,2.83,8.41h15C133.896,201.452,132.946,198.642,132.245,195.752z      M170.136,233.842c-5.08-1.26-9.92-3.27-14.4-6l-0.53,0.53c-2.47,2.48-6.5,2.48-8.97,0l-8.72-8.72c-2.48-2.47-2.48-6.49,0-8.97     l0.6-0.6c-0.58-0.95-1.11-1.93-1.62-2.92h-15c0.51,0.99,1.04,1.97,1.62,2.92l-0.6,0.6c-2.48,2.48-2.48,6.5,0,8.97l8.72,8.72     c2.47,2.48,6.5,2.48,8.97,0l0.53-0.53c4.48,2.73,9.32,4.74,14.4,6v0.72c0,0.96,0.22,1.86,0.6,2.67c-1.5,0.46-3.09,0.71-4.75,0.71     h15c1.66,0,3.25-0.25,4.75-0.71c-0.38-0.81-0.6-1.71-0.6-2.67V233.842z M167.416,69.502v56.07h-5.93c-3.5,0-6.35,2.85-6.35,6.34     v1.26c-4.95,1.22-9.68,3.17-14.07,5.8l-0.86-0.87c-2.47-2.47-6.5-2.47-8.97,0l-8.72,8.72c-1.72,1.71-2.24,4.17-1.58,6.34h15     c-0.66-2.17-0.14-4.63,1.58-6.34l8.72-8.72c2.47-2.47,6.5-2.47,8.97,0l0.86,0.87c4.39-2.63,9.12-4.58,14.07-5.8v-1.26     c0-3.49,2.85-6.34,6.35-6.34h5.93v-56.07H167.416z"></path>
		</g>
	</g>
	<g>
		<g>
			<path class="st6" d="M165.986,41.522h-15c9.06,0,16.43,7.37,16.43,16.42v8.56h15v-8.56     C182.416,48.892,175.046,41.522,165.986,41.522z"></path>
		</g>
	</g>
</g>
</svg>
